# xmcd
#
# Track frame offsets:
#	150
#	17326
#	32553
#	67473
#	92173
#	112649
#	133564
#	158172
#	178587
#	203525
#	223967
#	246556
#	279136
#	299453
#
# Disc length: 4156 seconds
#
# Revision: 1
# Processed by: cddbd v1.5.2PL0 Copyright (c) Steve Scherf et al.
# Submitted via: audiograbber 1.83.01
#
DISCID=c8103a0e
DTITLE=Various Artist - DJ V-Lays Listen To My Breaks
DYEAR=2005
DGENRE=Beat
TTITLE0=Amv - Money 4 nothing
TTITLE1=Nitro - Nightnology
TTITLE2=Poonisher - Decibel Hurricane
TTITLE3=Uptown Connection - System Senegal(Koma and Bones Remix)
TTITLE4=Etostone - Style
TTITLE5=Plump DJ's - The Pressure Boss
TTITLE6=X-Men - House Of Jealous Lovers
TTITLE7=Pink Sly - Pink Sly
TTITLE8=Xplosiva And Luca Baldini - Polivox(Madox Remix)
TTITLE9=Dylan Rhymes - Nightbreed(Original Mix)
TTITLE10=Lee Coombs And Andy Gardner - Obsessional Rhythm(Original Mix)
TTITLE11=Alex Dolby - Psiko Garden(Santos VIP Mix)
TTITLE12=Roxiller - Cracker
TTITLE13=Roxiller - Exorcist
EXTD=
EXTT0=
EXTT1=
EXTT2=
EXTT3=
EXTT4=
EXTT5=
EXTT6=
EXTT7=
EXTT8=
EXTT9=
EXTT10=
EXTT11=
EXTT12=
EXTT13=
PLAYORDER=
